<mxfile host="app.diagrams.net" modified="2022-03-19T12:09:47.123Z" agent="5.0 (Windows NT 10.0; Win64; x64) AppleWebKit/537.36 (KHTML, like Gecko) Chrome/99.0.4844.51 Safari/537.36" etag="dTYw8nWlgYjXiuCvJ5Zj" version="17.1.3" type="github">
  <diagram id="1B-fpYNwHT8gGiFz7cac" name="Page-1">
    <mxGraphModel dx="569" dy="347" grid="1" gridSize="10" guides="1" tooltips="1" connect="1" arrows="1" fold="1" page="1" pageScale="1" pageWidth="827" pageHeight="1169" math="0" shadow="0">
      <root>
        <mxCell id="0" />
        <mxCell id="1" parent="0" />
        <mxCell id="xWFW9N1MGH_5OfrrkcUP-1" value="" style="rounded=0;whiteSpace=wrap;html=1;" vertex="1" parent="1">
          <mxGeometry x="250" y="100" width="150" height="190" as="geometry" />
        </mxCell>
        <mxCell id="xWFW9N1MGH_5OfrrkcUP-4" value="&lt;font style=&quot;font-size: 12px&quot;&gt;Node&lt;/font&gt;" style="text;html=1;strokeColor=none;fillColor=none;align=center;verticalAlign=middle;whiteSpace=wrap;rounded=0;" vertex="1" parent="1">
          <mxGeometry x="295" y="70" width="60" height="40" as="geometry" />
        </mxCell>
        <mxCell id="xWFW9N1MGH_5OfrrkcUP-5" value="" style="rounded=1;whiteSpace=wrap;html=1;fontSize=12;" vertex="1" parent="1">
          <mxGeometry x="267.5" y="110" width="115" height="40" as="geometry" />
        </mxCell>
        <mxCell id="xWFW9N1MGH_5OfrrkcUP-6" value="Application" style="ellipse;whiteSpace=wrap;html=1;fontSize=12;" vertex="1" parent="1">
          <mxGeometry x="272.5" y="115" width="82.5" height="30" as="geometry" />
        </mxCell>
        <mxCell id="xWFW9N1MGH_5OfrrkcUP-7" value="&lt;font style=&quot;font-size: 12px&quot;&gt;...&lt;/font&gt;" style="text;html=1;strokeColor=none;fillColor=none;align=center;verticalAlign=middle;whiteSpace=wrap;rounded=0;" vertex="1" parent="1">
          <mxGeometry x="340" y="105" width="60" height="40" as="geometry" />
        </mxCell>
        <mxCell id="xWFW9N1MGH_5OfrrkcUP-8" value="" style="endArrow=classic;html=1;rounded=0;fontSize=12;" edge="1" parent="1">
          <mxGeometry width="50" height="50" relative="1" as="geometry">
            <mxPoint x="230" y="165" as="sourcePoint" />
            <mxPoint x="272.5" y="165" as="targetPoint" />
          </mxGeometry>
        </mxCell>
        <mxCell id="xWFW9N1MGH_5OfrrkcUP-9" value="Internet Module" style="rounded=0;whiteSpace=wrap;html=1;fontSize=12;" vertex="1" parent="1">
          <mxGeometry x="268.75" y="180" width="112.5" height="30" as="geometry" />
        </mxCell>
        <mxCell id="xWFW9N1MGH_5OfrrkcUP-18" value="" style="rounded=0;whiteSpace=wrap;html=1;fontSize=12;" vertex="1" parent="1">
          <mxGeometry x="290" y="150" width="3" height="30" as="geometry" />
        </mxCell>
        <mxCell id="xWFW9N1MGH_5OfrrkcUP-19" value="" style="rounded=0;whiteSpace=wrap;html=1;fontSize=12;" vertex="1" parent="1">
          <mxGeometry x="310" y="150" width="3" height="30" as="geometry" />
        </mxCell>
        <mxCell id="xWFW9N1MGH_5OfrrkcUP-20" value="" style="rounded=0;whiteSpace=wrap;html=1;fontSize=12;" vertex="1" parent="1">
          <mxGeometry x="337" y="150" width="3" height="30" as="geometry" />
        </mxCell>
        <mxCell id="xWFW9N1MGH_5OfrrkcUP-21" value="" style="rounded=0;whiteSpace=wrap;html=1;fontSize=12;" vertex="1" parent="1">
          <mxGeometry x="355" y="150" width="3" height="30" as="geometry" />
        </mxCell>
        <mxCell id="xWFW9N1MGH_5OfrrkcUP-23" value="&lt;font style=&quot;font-size: 8px&quot;&gt;Unix-like Socket API&lt;/font&gt;" style="text;html=1;strokeColor=none;fillColor=none;align=center;verticalAlign=middle;whiteSpace=wrap;rounded=0;fontSize=12;" vertex="1" parent="1">
          <mxGeometry x="150" y="145" width="60" height="30" as="geometry" />
        </mxCell>
      </root>
    </mxGraphModel>
  </diagram>
</mxfile>
